<mxfile host="app.diagrams.net" modified="2021-12-30T00:24:55.924Z" agent="5.0 (Windows NT 10.0; Win64; x64) AppleWebKit/537.36 (KHTML, like Gecko) Chrome/96.0.4664.110 Safari/537.36" etag="y07GaZX7X8BGlJ0uVM8F" version="16.1.0" type="github" pages="2">
  <diagram id="kgpKYQtTHZ0yAKxKKP6v" name="Professor">
    <mxGraphModel dx="868" dy="450" grid="1" gridSize="10" guides="1" tooltips="1" connect="1" arrows="1" fold="1" page="1" pageScale="1" pageWidth="850" pageHeight="1100" math="0" shadow="0">
      <root>
        <mxCell id="0" />
        <mxCell id="1" parent="0" />
        <mxCell id="cZxPFm-3Orbi2FP996B4-1" value="Professor" style="shape=umlActor;verticalLabelPosition=bottom;verticalAlign=top;html=1;outlineConnect=0;" vertex="1" parent="1">
          <mxGeometry x="50" y="230" width="30" height="60" as="geometry" />
        </mxCell>
        <mxCell id="cZxPFm-3Orbi2FP996B4-11" value="Minha Cena" style="swimlane;" vertex="1" parent="1">
          <mxGeometry x="530" y="60" width="310" height="670" as="geometry" />
        </mxCell>
        <mxCell id="cZxPFm-3Orbi2FP996B4-12" value="Se cadastrar" style="ellipse;whiteSpace=wrap;html=1;" vertex="1" parent="cZxPFm-3Orbi2FP996B4-11">
          <mxGeometry x="110" y="50" width="120" height="80" as="geometry" />
        </mxCell>
        <mxCell id="cZxPFm-3Orbi2FP996B4-13" value="Enviar Redação" style="ellipse;whiteSpace=wrap;html=1;" vertex="1" parent="cZxPFm-3Orbi2FP996B4-11">
          <mxGeometry x="130" y="150" width="120" height="80" as="geometry" />
        </mxCell>
        <mxCell id="cZxPFm-3Orbi2FP996B4-14" value="Fazer Login" style="ellipse;whiteSpace=wrap;html=1;" vertex="1" parent="cZxPFm-3Orbi2FP996B4-11">
          <mxGeometry x="120" y="280" width="120" height="80" as="geometry" />
        </mxCell>
        <mxCell id="cZxPFm-3Orbi2FP996B4-15" value="Receber Redação&lt;br&gt;Ilustrada" style="ellipse;whiteSpace=wrap;html=1;" vertex="1" parent="cZxPFm-3Orbi2FP996B4-11">
          <mxGeometry x="95" y="420" width="120" height="80" as="geometry" />
        </mxCell>
        <mxCell id="cZxPFm-3Orbi2FP996B4-16" value="Desconectar" style="ellipse;whiteSpace=wrap;html=1;" vertex="1" parent="cZxPFm-3Orbi2FP996B4-11">
          <mxGeometry x="100" y="540" width="120" height="80" as="geometry" />
        </mxCell>
        <mxCell id="vbR47MW0-EHpbq4KDWsN-1" value="Edita a redação" style="ellipse;whiteSpace=wrap;html=1;" vertex="1" parent="cZxPFm-3Orbi2FP996B4-11">
          <mxGeometry x="95" y="630" width="120" height="80" as="geometry" />
        </mxCell>
        <mxCell id="cZxPFm-3Orbi2FP996B4-17" value="" style="endArrow=classic;html=1;rounded=0;" edge="1" parent="1">
          <mxGeometry width="50" height="50" relative="1" as="geometry">
            <mxPoint x="110" y="250" as="sourcePoint" />
            <mxPoint x="620" y="170" as="targetPoint" />
          </mxGeometry>
        </mxCell>
        <mxCell id="cZxPFm-3Orbi2FP996B4-18" value="" style="endArrow=classic;html=1;rounded=0;" edge="1" parent="1">
          <mxGeometry width="50" height="50" relative="1" as="geometry">
            <mxPoint x="100" y="290" as="sourcePoint" />
            <mxPoint x="640" y="260" as="targetPoint" />
          </mxGeometry>
        </mxCell>
        <mxCell id="cZxPFm-3Orbi2FP996B4-19" value="" style="endArrow=classic;html=1;rounded=0;" edge="1" parent="1">
          <mxGeometry width="50" height="50" relative="1" as="geometry">
            <mxPoint x="100" y="310" as="sourcePoint" />
            <mxPoint x="620" y="380" as="targetPoint" />
          </mxGeometry>
        </mxCell>
        <mxCell id="cZxPFm-3Orbi2FP996B4-20" value="" style="endArrow=classic;html=1;rounded=0;" edge="1" parent="1">
          <mxGeometry width="50" height="50" relative="1" as="geometry">
            <mxPoint x="90" y="319" as="sourcePoint" />
            <mxPoint x="610" y="520" as="targetPoint" />
          </mxGeometry>
        </mxCell>
        <mxCell id="cZxPFm-3Orbi2FP996B4-21" value="Ca" style="endArrow=classic;html=1;rounded=0;" edge="1" parent="1">
          <mxGeometry width="50" height="50" relative="1" as="geometry">
            <mxPoint x="80" y="330" as="sourcePoint" />
            <mxPoint x="610" y="640" as="targetPoint" />
          </mxGeometry>
        </mxCell>
      </root>
    </mxGraphModel>
  </diagram>
  <diagram id="7580xSDabkFzAowkACub" name="Ilustrador">
    <mxGraphModel dx="868" dy="450" grid="1" gridSize="10" guides="1" tooltips="1" connect="1" arrows="1" fold="1" page="1" pageScale="1" pageWidth="827" pageHeight="1169" math="0" shadow="0">
      <root>
        <mxCell id="VxSWxNIEUKDHyFXtINyx-0" />
        <mxCell id="VxSWxNIEUKDHyFXtINyx-1" parent="VxSWxNIEUKDHyFXtINyx-0" />
        <mxCell id="VxSWxNIEUKDHyFXtINyx-2" value="Ilustrador" style="shape=umlActor;verticalLabelPosition=bottom;verticalAlign=top;html=1;outlineConnect=0;" vertex="1" parent="VxSWxNIEUKDHyFXtINyx-1">
          <mxGeometry x="80" y="140" width="30" height="60" as="geometry" />
        </mxCell>
        <mxCell id="VxSWxNIEUKDHyFXtINyx-3" value="Minha Cena" style="swimlane;" vertex="1" parent="VxSWxNIEUKDHyFXtINyx-1">
          <mxGeometry x="470" y="40" width="310" height="860" as="geometry" />
        </mxCell>
        <mxCell id="dyDqktCCr0aJCECSP-q3-0" value="Se cadastra&lt;br&gt;" style="ellipse;whiteSpace=wrap;html=1;" vertex="1" parent="VxSWxNIEUKDHyFXtINyx-3">
          <mxGeometry x="95" y="70" width="120" height="80" as="geometry" />
        </mxCell>
        <mxCell id="dyDqktCCr0aJCECSP-q3-1" value="&quot;Acolhe&quot; redação" style="ellipse;whiteSpace=wrap;html=1;" vertex="1" parent="VxSWxNIEUKDHyFXtINyx-3">
          <mxGeometry x="100" y="290" width="120" height="80" as="geometry" />
        </mxCell>
        <mxCell id="dyDqktCCr0aJCECSP-q3-2" value="Ilustra&lt;br&gt;" style="ellipse;whiteSpace=wrap;html=1;" vertex="1" parent="VxSWxNIEUKDHyFXtINyx-3">
          <mxGeometry x="100" y="420" width="120" height="80" as="geometry" />
        </mxCell>
        <mxCell id="dyDqktCCr0aJCECSP-q3-3" value="Envia redação ilustrada" style="ellipse;whiteSpace=wrap;html=1;" vertex="1" parent="VxSWxNIEUKDHyFXtINyx-3">
          <mxGeometry x="95" y="580" width="120" height="80" as="geometry" />
        </mxCell>
        <mxCell id="j3V0t7TgTaxSX1vQVPwc-0" value="Fazer Loggin" style="ellipse;whiteSpace=wrap;html=1;" vertex="1" parent="VxSWxNIEUKDHyFXtINyx-3">
          <mxGeometry x="110" y="180" width="120" height="80" as="geometry" />
        </mxCell>
        <mxCell id="j3V0t7TgTaxSX1vQVPwc-1" value="Desconecta&lt;br&gt;" style="ellipse;whiteSpace=wrap;html=1;" vertex="1" parent="VxSWxNIEUKDHyFXtINyx-3">
          <mxGeometry x="100" y="730" width="120" height="80" as="geometry" />
        </mxCell>
        <mxCell id="msCbRKsCKHYcDctkfb_2-0" value="" style="endArrow=classic;html=1;rounded=0;" edge="1" parent="VxSWxNIEUKDHyFXtINyx-1" source="VxSWxNIEUKDHyFXtINyx-2">
          <mxGeometry width="50" height="50" relative="1" as="geometry">
            <mxPoint x="390" y="210" as="sourcePoint" />
            <mxPoint x="540" y="160" as="targetPoint" />
          </mxGeometry>
        </mxCell>
        <mxCell id="msCbRKsCKHYcDctkfb_2-1" value="" style="endArrow=classic;html=1;rounded=0;" edge="1" parent="VxSWxNIEUKDHyFXtINyx-1">
          <mxGeometry width="50" height="50" relative="1" as="geometry">
            <mxPoint x="120" y="200" as="sourcePoint" />
            <mxPoint x="570" y="260" as="targetPoint" />
          </mxGeometry>
        </mxCell>
        <mxCell id="msCbRKsCKHYcDctkfb_2-2" value="" style="endArrow=classic;html=1;rounded=0;" edge="1" parent="VxSWxNIEUKDHyFXtINyx-1">
          <mxGeometry width="50" height="50" relative="1" as="geometry">
            <mxPoint x="120" y="220" as="sourcePoint" />
            <mxPoint x="560" y="370" as="targetPoint" />
          </mxGeometry>
        </mxCell>
        <mxCell id="msCbRKsCKHYcDctkfb_2-3" value="" style="endArrow=classic;html=1;rounded=0;" edge="1" parent="VxSWxNIEUKDHyFXtINyx-1">
          <mxGeometry width="50" height="50" relative="1" as="geometry">
            <mxPoint x="110" y="230" as="sourcePoint" />
            <mxPoint x="560" y="480" as="targetPoint" />
          </mxGeometry>
        </mxCell>
        <mxCell id="msCbRKsCKHYcDctkfb_2-4" value="" style="endArrow=classic;html=1;rounded=0;" edge="1" parent="VxSWxNIEUKDHyFXtINyx-1">
          <mxGeometry width="50" height="50" relative="1" as="geometry">
            <mxPoint x="90" y="240" as="sourcePoint" />
            <mxPoint x="550" y="640" as="targetPoint" />
          </mxGeometry>
        </mxCell>
        <mxCell id="msCbRKsCKHYcDctkfb_2-5" value="" style="endArrow=classic;html=1;rounded=0;" edge="1" parent="VxSWxNIEUKDHyFXtINyx-1" target="j3V0t7TgTaxSX1vQVPwc-1">
          <mxGeometry width="50" height="50" relative="1" as="geometry">
            <mxPoint x="90" y="230" as="sourcePoint" />
            <mxPoint x="500" y="630" as="targetPoint" />
          </mxGeometry>
        </mxCell>
      </root>
    </mxGraphModel>
  </diagram>
</mxfile>
